<?xml version="1.0" standalone="no"?>
<!DOCTYPE svg PUBLIC "-//W3C//DTD SVG 20010904//EN"
 "http://www.w3.org/TR/2001/REC-SVG-20010904/DTD/svg10.dtd">
<svg version="1.0" xmlns="http://www.w3.org/2000/svg"
 width="950.000000pt" height="250.000000pt" viewBox="0 0 950.000000 250.000000"
 preserveAspectRatio="xMidYMid meet">

<g transform="translate(0.000000,250.000000) scale(0.100000,-0.100000)"
fill="#000000" stroke="none">
<path d="M1023 1955 c-326 -59 -583 -292 -675 -612 -30 -103 -33 -333 -5 -432
42 -155 99 -258 201 -368 168 -181 383 -275 626 -276 403 0 749 283 832 682
46 222 -6 473 -136 654 -194 273 -523 410 -843 352z m347 -46 c244 -62 453
-242 548 -473 32 -79 62 -224 62 -301 0 -384 -271 -719 -647 -797 -494 -102
-962 277 -965 782 -1 219 66 394 211 552 206 223 497 310 791 237z"/>
<path d="M1005 1894 c-252 -56 -465 -236 -562 -474 -119 -296 -43 -639 190
-856 222 -208 497 -271 777 -178 249 83 438 283 512 540 32 112 32 296 0 407
-76 266 -269 463 -537 547 -93 29 -280 36 -380 14z m-101 -563 c58 -28 155
-115 143 -127 -3 -3 -25 10 -49 28 -83 64 -158 84 -158 43 0 -76 262 -395 348
-423 40 -14 58 -7 77 27 l14 26 1 -32 c1 -92 -93 -79 -231 32 -174 141 -351
409 -301 459 14 15 93 -2 156 -33z m495 -127 c31 -12 43 -24 51 -50 13 -38 6
-104 -16 -144 -11 -22 -12 -17 -7 46 5 65 4 73 -17 94 -19 19 -29 22 -72 17
-54 -7 -131 -46 -151 -78 -6 -10 -23 -19 -37 -20 -14 0 4 -7 40 -15 63 -13
110 -38 118 -62 7 -21 -21 -13 -52 16 l-30 27 32 -38 c39 -46 39 -49 6 -37
-30 12 -112 11 -136 -1 -9 -5 -19 -5 -22 0 -10 16 34 59 67 67 28 6 29 8 12
14 -14 5 -27 1 -42 -13 l-23 -20 0 32 c0 70 57 130 157 161 72 23 74 23 122 4z
m26 -276 c52 -48 157 -175 199 -241 26 -42 47 -108 41 -128 -15 -46 -95 -23
-178 51 -54 48 -57 63 -4 27 53 -36 96 -52 108 -40 25 25 -69 168 -190 288
-47 46 -71 77 -71 93 0 19 3 21 19 13 10 -6 45 -34 76 -63z m-270 2 c3 -5 2
-10 -4 -10 -5 0 -13 5 -16 10 -3 6 -2 10 4 10 5 0 13 -4 16 -10z m206 -57 c35
-107 -64 -269 -211 -343 -107 -54 -232 -61 -271 -14 -19 24 -16 80 10 145 24
62 78 149 92 149 16 0 10 -16 -26 -76 -51 -84 -45 -133 21 -160 83 -35 197 32
307 178 44 59 54 98 33 139 -9 17 -13 36 -10 41 9 15 42 -21 55 -59z"/>
<path d="M2834 1735 c-179 -39 -298 -169 -299 -325 0 -84 16 -111 162 -263
115 -119 133 -150 117 -196 -19 -54 -124 -78 -202 -45 -33 14 -169 44 -198 44
-7 0 -14 -30 -18 -77 -4 -43 -9 -101 -12 -129 l-6 -51 129 -16 c268 -35 329
-38 414 -27 87 12 164 38 211 71 32 24 38 11 7 -17 l-21 -18 29 -9 c15 -5 120
-11 234 -14 l205 -5 94 146 94 146 147 0 148 0 6 -32 c3 -18 12 -78 21 -133 8
-55 17 -101 19 -103 18 -18 381 -33 397 -16 3 3 -4 53 -17 112 -30 142 -130
661 -151 787 -15 88 -21 104 -50 133 l-32 32 -200 0 -200 0 -233 -332 c-128
-183 -258 -370 -289 -415 -30 -45 -57 -82 -60 -83 -3 0 -4 26 -2 59 5 83 -19
124 -153 261 -62 63 -115 125 -119 138 -10 31 16 70 59 88 58 24 186 14 276
-21 18 -7 22 13 34 155 l7 75 -58 33 c-97 56 -342 79 -490 47z m1201 -447 c3
-29 9 -61 11 -70 5 -16 -2 -18 -56 -18 -34 0 -60 4 -58 8 8 21 84 132 90 132
3 0 9 -24 13 -52z"/>
<path d="M6297 1734 c-335 -60 -554 -294 -588 -626 -19 -188 24 -295 154 -379
111 -72 245 -96 444 -79 70 6 146 16 168 21 l40 10 42 122 c22 67 40 123 40
123 -1 1 -47 -7 -102 -17 -199 -36 -314 -20 -390 55 -54 54 -69 100 -62 183 8
82 29 126 92 189 96 97 224 135 378 115 46 -6 98 -15 116 -21 30 -8 35 -6 59
22 23 27 29 49 42 150 18 137 31 120 -103 138 -105 13 -235 11 -330 -6z"/>
<path d="M7357 1734 c-98 -18 -218 -64 -295 -113 -83 -54 -232 -205 -270 -272
-54 -98 -77 -190 -77 -309 0 -95 3 -111 28 -162 74 -151 234 -230 467 -231
120 0 303 30 404 67 205 74 351 232 411 443 23 79 26 108 23 190 -4 120 -32
187 -107 263 -119 119 -346 167 -584 124z m165 -310 c23 -16 52 -49 66 -74 21
-40 23 -55 20 -130 -4 -72 -10 -95 -37 -149 -39 -75 -116 -154 -167 -171 -64
-22 -179 7 -238 59 -96 85 -78 298 37 434 44 52 93 68 195 64 72 -3 88 -7 124
-33z"/>
<path d="M8920 1736 c-77 -17 -278 -102 -331 -141 -109 -79 -157 -218 -109
-322 10 -23 71 -97 135 -164 63 -67 118 -133 121 -146 8 -32 -20 -73 -51 -73
-25 0 -171 44 -193 58 -8 5 -43 2 -85 -8 l-72 -17 -7 -99 c-4 -54 -9 -109 -11
-121 -4 -20 2 -23 47 -32 134 -28 236 -32 385 -16 80 8 169 21 197 29 166 44
288 182 287 326 0 74 -39 134 -173 268 -105 104 -121 124 -118 149 3 27 5 28
50 26 26 -2 69 -11 95 -21 l48 -18 91 28 90 28 12 122 c8 88 8 124 0 129 -19
12 -182 29 -269 28 -46 0 -109 -6 -139 -13z"/>
<path d="M4775 1718 c-2 -7 -14 -65 -25 -128 -49 -266 -132 -639 -184 -822
l-24 -88 36 -10 c21 -7 99 -10 182 -8 l145 3 31 155 c62 306 94 456 116 545
l23 90 100 0 c63 0 112 -5 133 -14 30 -13 33 -17 28 -43 -9 -44 -43 -86 -89
-110 -33 -18 -60 -22 -124 -23 -81 0 -81 0 -77 -25 3 -14 18 -97 34 -185 16
-87 35 -206 42 -263 7 -60 18 -110 26 -118 10 -11 52 -14 178 -14 90 0 164 4
164 9 0 4 -22 89 -49 187 -26 98 -51 195 -55 214 l-6 36 67 29 c90 38 162 110
193 190 19 48 24 80 24 155 1 130 -25 174 -129 222 -49 22 -59 23 -403 26
-282 2 -353 0 -357 -10z"/>
<path d="M8271 1697 l-63 -32 -69 -137 c-38 -76 -69 -140 -69 -143 0 -3 30 -5
67 -5 49 0 86 7 135 27 65 25 72 31 145 127 42 56 94 122 116 149 l39 47 -119
-1 c-112 0 -121 -2 -182 -32z"/>
<path d="M2142 1180 c0 -14 2 -19 5 -12 2 6 2 18 0 25 -3 6 -5 1 -5 -13z"/>
<path d="M2142 1070 c0 -14 2 -19 5 -12 2 6 2 18 0 25 -3 6 -5 1 -5 -13z"/>
<path d="M8843 410 c-12 -5 -27 -18 -33 -30 -9 -18 -7 -26 17 -55 15 -18 36
-34 46 -34 21 -1 22 12 1 29 -31 27 -35 46 -13 74 21 27 18 30 -18 16z"/>
<path d="M6776 338 c7 -73 10 -86 19 -77 8 9 -8 149 -17 149 -5 0 -6 -30 -2
-72z"/>
<path d="M6852 377 c-17 -47 -15 -81 2 -41 22 49 28 74 19 74 -5 0 -14 -15
-21 -33z"/>
<path d="M6955 379 c-9 -17 -15 -40 -13 -51 2 -15 9 -7 25 30 23 56 14 72 -12
21z"/>
<path d="M7058 392 c-35 -21 -54 -72 -38 -101 12 -23 50 -47 50 -32 0 5 -7 11
-15 15 -10 3 -15 19 -15 46 0 31 6 47 26 65 31 29 29 31 -8 7z"/>
<path d="M7245 398 c-15 -45 -33 -133 -29 -140 11 -18 23 5 38 72 9 38 16 71
16 74 0 11 -21 6 -25 -6z"/>
<path d="M7401 358 c-6 -29 -14 -63 -17 -75 -5 -16 -2 -23 8 -23 10 0 19 19
27 53 6 28 14 62 17 75 5 15 2 22 -8 22 -10 0 -19 -19 -27 -52z"/>
<path d="M7542 352 c-14 -70 -15 -92 -3 -92 5 0 14 24 21 52 6 29 13 63 16 75
4 16 2 23 -8 23 -9 0 -18 -20 -26 -58z"/>
<path d="M7814 392 c-48 -39 -55 -82 -19 -117 32 -32 56 -33 26 -1 -30 32 -22
86 16 116 14 11 20 20 12 20 -8 0 -24 -8 -35 -18z"/>
<path d="M7999 393 c-1 -10 -1 -26 0 -35 1 -9 -5 -30 -13 -47 -21 -39 -20 -51
2 -51 14 0 21 15 34 75 15 72 14 75 -3 75 -11 0 -19 -8 -20 -17z"/>
<path d="M8170 393 c0 -10 -7 -36 -15 -58 -20 -55 -19 -77 2 -73 12 2 22 23
34 76 16 69 16 72 -2 72 -11 0 -19 -7 -19 -17z"/>
<path d="M8239 334 c-8 -41 -13 -77 -9 -79 15 -9 29 14 40 70 7 33 15 65 17
72 3 8 -3 13 -14 13 -15 0 -21 -14 -34 -76z"/>
<path d="M8404 375 c-8 -20 -16 -54 -18 -75 -3 -32 0 -40 13 -40 13 0 20 16
29 60 7 34 15 67 19 75 3 10 -1 15 -11 15 -10 0 -23 -15 -32 -35z"/>
<path d="M8526 395 c-3 -8 0 -29 6 -46 12 -35 21 -27 31 29 6 27 3 32 -12 32
-10 0 -21 -7 -25 -15z"/>
<path d="M8610 395 c0 -8 5 -15 11 -15 11 0 8 -42 -7 -97 -5 -18 -2 -23 14
-23 15 0 22 10 31 44 16 63 14 76 -9 76 -11 0 -20 7 -20 15 0 8 -4 15 -10 15
-5 0 -10 -7 -10 -15z"/>
<path d="M8780 400 c0 -6 -10 -15 -22 -20 -22 -8 -22 -9 -2 -9 20 -1 44 16 44
31 0 4 -4 8 -10 8 -5 0 -10 -5 -10 -10z"/>
<path d="M7148 379 c17 -18 15 -54 -3 -69 -9 -7 -13 -15 -10 -18 3 -3 14 3 25
13 27 24 26 61 -2 76 -19 9 -21 9 -10 -2z"/>
<path d="M7326 372 c-4 -9 -14 -30 -22 -46 -13 -23 -14 -33 -5 -53 15 -33 26
-21 22 24 -2 26 2 38 18 50 24 17 27 29 7 36 -8 3 -17 -2 -20 -11z"/>
<path d="M7642 370 c11 -17 10 -26 -4 -50 -20 -34 -8 -40 22 -10 25 25 26 56
1 70 -29 15 -33 12 -19 -10z"/>
<path d="M7900 385 c0 -3 5 -14 12 -24 9 -15 8 -24 -5 -45 -21 -31 -6 -35 23
-6 24 24 25 43 4 64 -15 15 -34 21 -34 11z"/>
<path d="M8910 380 c0 -5 7 -7 15 -4 8 4 15 8 15 10 0 2 -7 4 -15 4 -8 0 -15
-4 -15 -10z"/>
<path d="M8083 373 c4 -3 1 -13 -7 -22 -7 -9 -16 -33 -19 -53 -5 -33 -3 -38
15 -38 18 0 19 4 13 39 -6 34 -4 40 14 46 28 8 27 35 -1 35 -12 0 -18 -3 -15
-7z"/>
<path d="M6886 334 c-10 -25 -7 -74 4 -74 6 0 10 20 10 45 0 47 -4 55 -14 29z"/>
<path d="M8468 321 c-5 -37 7 -61 31 -61 18 0 18 2 2 45 -19 52 -27 56 -33 16z"/>
<path d="M8786 292 c-12 -12 -5 -30 14 -35 13 -3 20 0 20 9 0 8 1 17 3 21 3 8
-30 13 -37 5z"/>
</g>
</svg>
